<svg xmlns="http://www.w3.org/2000/svg" xmlns:xlink="http://www.w3.org/1999/xlink" version="1.1" x="0px" y="0px" viewBox="0 0 100 125" enable-background="new 0 0 100 100" xml:space="preserve"><path d="M59.403,70.592c0,4.92-1.783,10.691-8.91,10.691c-6.731,0-10.097-5.771-10.097-10.691c0-1.87-0.03-3.716-0.08-5.543H13.273  V95.34h73.649V65.049h-27.67C59.348,66.876,59.403,68.723,59.403,70.592z"/><path d="M42.635,70.523c0,3.784,2.588,8.224,7.767,8.224c5.482,0,6.854-4.439,6.854-8.224c0-1.438-0.043-2.857-0.115-4.264  C55.306,31.033,31.388,6.104,29.919,6.104c-1.173,0,11.674,24.662,12.654,60.156C42.613,67.664,42.635,69.085,42.635,70.523z"/></svg>