<?xml version="1.0" encoding="UTF-8" standalone="no"?>
<!-- Created with Inkscape (http://www.inkscape.org/) -->

<svg
   width="210mm"
   height="297mm"
   viewBox="0 0 210 297"
   version="1.1"
   id="svg1"
   xml:space="preserve"
   inkscape:export-filename="logo1.svg"
   inkscape:export-xdpi="96"
   inkscape:export-ydpi="96"
   xmlns:inkscape="http://www.inkscape.org/namespaces/inkscape"
   xmlns:sodipodi="http://sodipodi.sourceforge.net/DTD/sodipodi-0.dtd"
   xmlns="http://www.w3.org/2000/svg"
   xmlns:svg="http://www.w3.org/2000/svg"><sodipodi:namedview
     id="namedview1"
     pagecolor="#ffffff"
     bordercolor="#000000"
     borderopacity="0.25"
     inkscape:showpageshadow="2"
     inkscape:pageopacity="0.0"
     inkscape:pagecheckerboard="0"
     inkscape:deskcolor="#d1d1d1"
     inkscape:document-units="mm" /><defs
     id="defs1"><rect
       x="177.76668"
       y="545.69281"
       width="261.05072"
       height="27.00511"
       id="rect1" /></defs><g
     inkscape:label="Layer 1"
     inkscape:groupmode="layer"
     id="layer1"><path
       d="m 100.91593,87.651142 c -6.242047,1.154641 -12.888116,3.602037 -18.08321,6.659033 -2.624137,1.544108 -4.538662,3.092979 -4.538662,3.671887 0,0.784754 0.639233,0.649552 1.678252,-0.354806 2.958835,-2.859881 11.005079,-6.581246 17.900915,-8.279341 2.089409,-0.514615 3.227645,-0.620713 6.746865,-0.630238 4.0558,-0.01058 4.28334,0.0172 5.42396,0.661458 l 1.19062,0.672307 -0.0323,1.534054 c -0.0262,1.254125 -0.25295,1.976173 -1.24249,3.957637 -2.00977,4.025635 -5.27949,8.142817 -16.401246,20.652317 -10.931789,12.29571 -11.534775,13.14132 -10.218208,14.33274 0.543983,0.49239 0.56515,0.47916 2.579687,-1.61396 16.196487,-16.82723 23.921267,-24.30197 30.473937,-29.487014 5.79279,-4.583906 14.18537,-10.059193 15.41859,-10.059193 0.3863,0 0.45403,0.128058 0.31565,0.595312 -0.50191,1.692275 -4.67598,8.802158 -10.63995,18.123695 -3.25385,5.08609 -6.15553,11.90202 -6.57093,15.43552 -0.28046,2.38628 0.91678,6.04997 2.64954,8.10948 0.92101,1.09458 2.43284,1.80314 2.94349,1.37954 0.63711,-0.5289 0.4355,-0.97605 -0.73131,-1.6211 -0.61198,-0.3384 -1.47505,-1.13242 -1.91823,-1.76424 -0.76782,-1.09591 -0.80433,-1.26842 -0.78317,-3.70417 0.0191,-2.21509 0.13997,-2.87205 0.90779,-4.93633 1.22211,-3.28612 3.53854,-7.72027 7.53242,-14.41979 3.92774,-6.588655 6.44419,-11.292153 7.39987,-13.831623 1.10279,-2.929202 0.81519,-5.218377 -0.65511,-5.218377 -0.71596,0 -4.19788,1.885156 -7.26969,3.935941 -5.98514,3.995473 -12.12877,9.002179 -18.17979,14.814819 -2.14074,2.05634 -3.95261,3.73882 -4.02669,3.73882 -0.0738,0 1.18057,-1.79228 2.78738,-3.98303 5.06095,-6.899809 6.81726,-10.265838 7.03342,-13.479467 0.14473,-2.151327 -0.39158,-3.321315 -1.90235,-4.149461 -2.00634,-1.099608 -6.15633,-1.414197 -9.78905,-0.74242 m -55.297914,3.182673 c -8.479896,1.366572 -19.593718,4.021931 -26.458333,6.321689 -6.88684,2.307167 -12.5020911,5.090586 -14.3155461,7.096126 -1.23825,1.36922 -1.267354,2.9337 -0.07964,4.28625 0.450057,0.5125 1.253596,1.06124 1.785938,1.2192 1.136915,0.33787 3.6322001,0.23389 3.5710811,-0.14843 -0.02328,-0.14552 -0.7702021,-0.51647 -1.6597311,-0.82444 -1.766623,-0.61145 -2.66356,-1.2655 -2.66356,-1.94284 0,-1.18242 4.3682711,-4.09072 9.6149581,-6.40133 5.109104,-2.250015 17.448212,-6.044934 19.655102,-6.044934 0.508,0 0.858044,-0.106098 0.777875,-0.235744 -0.08017,-0.129645 1.490398,-0.543983 3.490119,-0.92075 7.941998,-1.496483 9.117277,-1.614752 15.939029,-1.604962 5.847027,0.0085 6.689725,0.06641 8.598958,0.592137 3.004609,0.827353 5.256742,2.037821 6.62649,3.561557 1.612106,1.792816 1.732227,2.66647 0.664898,4.834466 -0.941388,1.91214 -3.069167,4.26852 -4.021138,4.45294 -0.343429,0.0664 -2.886604,0.48974 -5.6515,0.94086 -8.333316,1.35916 -16.267641,3.17473 -21.959887,5.02523 -1.309423,0.42545 -2.427552,0.72707 -2.484702,0.66966 -0.169863,-0.16986 5.97191,-7.85574 8.792898,-11.00349 0.66966,-0.747187 1.156229,-1.457594 1.081352,-1.578773 -0.07488,-0.121179 0.05027,-0.50456 0.277812,-0.851958 0.370152,-0.564886 0.371475,-0.66675 0.01111,-0.965729 -0.325438,-0.27014 -0.483923,-0.267229 -0.823913,0.01508 -0.590285,0.489744 -5.369454,5.87746 -10.07401,11.35698 l -3.975629,4.6302 -3.1496,1.28932 c -12.400489,5.0763 -20.2152221,10.56243 -20.2152221,14.19145 0,1.11469 0.6125104,2.21113 1.4478001,2.5916 1.098814,0.50085 5.840148,0.38523 8.968316,-0.21828 10.086182,-1.94654 26.467329,-8.51826 37.076592,-14.87435 4.225925,-2.53153 10.688108,-7.18846 11.853069,-8.54154 1.066535,-1.23852 2.163762,-1.71 3.986212,-1.71265 l 1.02235,-0.002 -1.617662,1.72958 c -1.694392,1.81108 -2.056871,2.86835 -1.221317,3.56182 0.328083,0.27252 0.635265,0.14314 1.785938,-0.75221 0.764116,-0.59452 2.103702,-1.63195 2.976827,-2.30505 0.873125,-0.6731 1.91135,-1.52955 2.307166,-1.90341 0.677069,-0.63897 0.729721,-0.64929 0.884767,-0.17436 0.484981,1.48511 0.74295,1.9603 1.064154,1.9603 0.524404,0 0.85725,-0.81201 0.715433,-1.74493 -0.08519,-0.55986 0.09896,-1.24698 0.582878,-2.17223 0.389202,-0.74427 0.631031,-1.47717 0.537633,-1.62851 -0.372269,-0.60193 -1.193006,-0.18918 -3.409686,1.71503 -2.277004,1.95606 -2.814637,2.18123 -2.814637,1.17845 0,-0.74824 -0.823383,-1.05489 -2.347913,-0.87444 -0.74586,0.0884 -1.356254,0.0979 -1.356254,0.0214 0,-0.0767 0.385763,-0.95647 0.857515,-1.95528 1.597554,-3.383223 1.016,-6.449743 -1.618721,-8.536777 -1.502569,-1.189817 -4.631531,-2.579408 -6.91171,-3.069152 -2.862792,-0.615156 -14.839686,-0.782373 -18.123959,-0.253206 m 104.761504,2.039937 c -1.10278,1.222375 -4.14628,5.226844 -9.58823,12.616128 -0.90355,1.22714 -1.64306,2.15821 -1.64306,2.06904 0,-0.0889 0.47413,-1.37874 1.05383,-2.8657 0.57944,-1.48722 1.12845,-3.10303 1.22,-3.59066 0.14472,-0.77126 0.0958,-0.88662 -0.37518,-0.88662 -0.35349,0 -1.10464,0.68871 -2.16165,1.98226 -1.48272,1.81478 -4.26032,4.36774 -4.75192,4.36774 -0.11191,0 -0.28469,-0.79137 -0.38391,-1.75842 -0.20981,-2.04761 -0.51302,-2.7395 -1.20069,-2.7395 -0.69373,0 -2.79691,2.42359 -3.34221,3.85154 -0.45006,1.17872 -0.44847,1.19777 0.15928,1.84468 0.33787,0.35957 0.72284,0.65378 0.85566,0.65378 0.13282,0 0.78131,-0.38682 1.44145,-0.85989 l 1.20041,-0.8599 0.39662,0.59531 c 0.21802,0.32756 0.54769,0.59532 0.73264,0.59532 0.18467,0 0.97393,-0.55907 1.75365,-1.24222 2.50296,-2.19313 2.3286,-2.11614 2.0574,-0.90885 -0.13149,0.58447 -0.46434,1.63513 -0.73977,2.33469 -0.8218,2.08703 -1.10728,3.30703 -0.74322,3.17579 0.17278,-0.0622 0.49901,-0.0183 0.72523,0.0974 0.56806,0.29078 0.78634,0.0968 2.1037,-1.86928 1.87404,-2.79664 7.14269,-9.93431 10.15815,-13.761773 2.61064,-3.313377 3.16653,-4.229893 2.56513,-4.229893 -0.13202,0 -0.80407,0.624945 -1.49331,1.389062 m 22.66924,6.116637 c -0.70273,0.724959 -0.84799,1.066007 -0.77946,1.829597 l 0.0841,0.93847 1.25678,-1.45203 c 0.69109,-0.798776 1.25677,-1.62216 1.25677,-1.829858 0,-0.66622 -0.92896,-0.403754 -1.81822,0.513821 m 2.51381,1.246187 c -0.95859,0.7538 -1.31234,1.47294 -1.47929,3.0062 -0.13441,1.23481 -0.19367,1.31948 -1.06839,1.52955 -2.75457,0.66173 -3.77666,1.6637 -3.17632,3.11336 0.39529,0.95408 0.97975,1.32609 2.08333,1.32609 1.71371,0 3.31946,-1.07368 3.61421,-2.41671 0.0923,-0.41936 0.37624,-0.87418 0.63103,-1.0107 1.03981,-0.55642 8.46402,-1.15015 14.70713,-1.17634 6.53785,-0.0273 13.08894,0.4826 13.10534,1.02023 0.004,0.15187 0.30983,0.61913 0.67839,1.03849 0.59928,0.68157 0.74216,0.72946 1.34779,0.4535 0.60007,-0.27332 0.65934,-0.42069 0.51991,-1.29143 -0.22252,-1.38986 -0.90647,-1.8333 -3.15146,-2.04259 -3.35015,-0.31221 -23.65957,0.0191 -25.6786,0.4191 -1.56131,0.3093 -1.83409,0.30507 -2.04444,-0.0304 -0.32623,-0.51964 -0.0968,-1.22581 0.82682,-2.54688 0.4236,-0.60589 0.77021,-1.29064 0.77021,-1.52135 0,-0.58923 -0.8554,-0.523348 -1.68566,0.12991 m -23.38917,0.91651 c -0.33073,0.2331 -1.08479,1.07845 -1.67614,1.87908 -1.06733,1.44489 -2.42384,2.2897 -4.27143,2.66012 -1.08902,0.21854 -0.95276,-0.59849 0.16113,-0.96626 1.67085,-0.55139 2.41803,-3.22712 0.9488,-3.39831 -1.33456,-0.15531 -3.16045,2.10794 -3.16045,3.91795 0,1.06124 0.68765,2.37861 1.24169,2.37861 0.23865,0 1.19221,-0.41672 2.11878,-0.92605 0.92657,-0.50932 1.84759,-0.92604 2.04655,-0.92604 0.19871,0 0.60749,0.41672 0.90779,0.92604 0.76121,1.29011 0.78317,1.28641 5.12868,-0.87153 0.10928,-0.0542 0.12568,0.0913 0.0365,0.32358 -0.0892,0.23231 -0.013,0.60219 0.16933,0.8218 0.40878,0.49239 0.91705,0.20161 3.32899,-1.90474 0.88926,-0.77655 1.6928,-1.41181 1.78593,-1.41181 0.0929,0 0.16907,0.52122 0.16907,1.15834 0,1.62878 0.44265,1.9349 2.24949,1.55602 0.77735,-0.16299 2.07222,-0.61913 2.87761,-1.01362 3.28824,-1.60999 4.22857,-3.38746 1.09061,-2.06111 -2.49343,1.05384 -4.62624,1.77536 -4.7834,1.61819 -0.0791,-0.0789 0.006,-0.8673 0.18838,-1.7518 0.18283,-0.88451 0.25506,-1.68513 0.16087,-1.77933 -0.37333,-0.37332 -1.54543,0.21987 -2.92338,1.47903 -1.54729,1.41419 -1.95448,1.63248 -1.51527,0.81174 0.36116,-0.67522 0.35084,-1.86955 -0.0164,-1.86955 -0.15955,0 -1.06442,0.70961 -2.01084,1.57665 -1.78144,1.63248 -3.52769,2.65669 -4.5294,2.65669 -0.89297,0 -0.69665,-0.47387 0.76306,-1.84468 1.22343,-1.14856 1.33376,-1.34911 1.25677,-2.28679 -0.0971,-1.1856 -0.73713,-1.46156 -1.74334,-0.75222 m -89.092884,5.81687 c -1.91426,0.30242 -5.114925,0.88053 -7.9375,1.43351 -0.582083,0.11404 -2.181225,0.40958 -3.553618,0.6567 -1.372394,0.24686 -2.860675,0.60166 -3.307292,0.78793 -0.446617,0.18653 -1.288256,0.42254 -1.87034,0.5244 -1.68275,0.29501 -7.924006,2.04946 -8.069791,2.26828 -0.07276,0.10927 -0.585523,0.28231 -1.139296,0.38417 -1.193006,0.21934 -1.958975,0.94139 -5.573713,5.25436 -1.430602,1.70683 -2.749021,3.1033 -2.929996,3.1033 -0.451379,0 -1.204912,-0.87313 -1.204912,-1.39621 0,-0.23548 0.62521,-1.16469 1.389062,-2.06428 0.764117,-0.89984 1.608138,-1.91928 1.875896,-2.26536 0.484982,-0.6268 0.484452,-0.62838 -0.132291,-0.39158 -3.767667,1.44674 -11.189494,5.18901 -13.848292,6.98261 -3.587221,2.42015 -6.036204,4.97761 -5.763683,6.01954 0.07567,0.28945 0.0029,0.68844 -0.161396,0.88688 -0.9423957,1.13533 4.646133,0.41434 10.844791,-1.39912 10.116873,-2.95989 21.749015,-7.67079 30.590067,-12.38858 6.104731,-3.25781 14.576161,-8.83179 13.305896,-8.75506 -0.218281,0.0132 -1.349375,0.17436 -2.513542,0.35851"
       stroke="none"
       fill="#040404"
       fill-rule="evenodd"
       id="path1"
       style="stroke-width:0.264583" /><text
       xml:space="preserve"
       transform="matrix(0.26458333,0,0,0.26458333,-37.120749,-5.8161035)"
       id="text1"
       style="font-size:24px;font-family:Poppins;-inkscape-font-specification:Poppins;text-align:center;white-space:pre;shape-inside:url(#rect1);fill:#000000;fill-rule:evenodd;stroke:#040404;stroke-width:0.377953;stroke-linecap:round;stroke-dasharray:none"><tspan
         x="179.42501"
         y="566.69336"
         id="tspan1">HAIR AND FACE CLINIC</tspan></text></g></svg>
