<svg xmlns="http://www.w3.org/2000/svg" xmlns:xlink="http://www.w3.org/1999/xlink" xml:space="preserve" style="shape-rendering:geometricPrecision;text-rendering:geometricPrecision;image-rendering:optimizeQuality;" viewBox="0 0 173.397 216.74624999999997" x="0px" y="0px" fill-rule="evenodd" clip-rule="evenodd"><defs><style type="text/css">
   
    .fil1 {fill:none}
    .fil0 {fill:black}
   
  </style></defs><g><path class="fil0" d="M86.6953 102.153c3.8115,0.0066 7.2707,3.3552 9.7488,9.4323 2.5479,6.2509 4.0167,15.1508 4.2429,25.7387 0.735,17.5278 4.3368,21.5238 6.4147,22.3417 2.5964,1.0196 5.795,-1.7542 7.0515,-2.9968 13.4699,-13.2992 13.5568,-36.1839 13.6299,-54.5716 0.0389,-10.6994 0.0731,-19.1501 2.7218,-23.7201 6.3834,-10.9986 10.2328,-22.432 10.8454,-32.1881 0.7073,-11.3328 -2.7148,-20.2637 -10.1737,-26.5428l0.0002 -0.0003c-13.1595,-11.082 -27.3609,-4.6392 -36.7548,-0.3755 -3.414,1.5486 -5.8996,2.68 -7.7234,2.607 -1.8303,0.0764 -4.309,-1.0582 -7.7235,-2.607 -9.3934,-4.2637 -23.5946,-10.7062 -36.7511,0.3758 -7.4585,6.2789 -10.8837,15.2101 -10.1736,26.5428 0.6093,9.756 4.4587,21.1896 10.8419,32.1881 2.649,4.57 2.6835,13.0209 2.7253,23.7201 0.0701,18.3875 0.1566,41.2725 13.6263,54.5716 1.2567,1.2426 4.4586,4.0201 7.0516,2.9968 2.0817,-0.818 5.6803,-4.8136 6.4146,-22.3765 0.2304,-10.5532 1.6951,-19.4528 4.243,-25.7039 2.4788,-6.0775 5.9377,-9.4254 9.7422,-9.4323zm21.6112 61.0837c-0.7973,0 -1.6121,-0.1392 -2.4266,-0.4629 -5.1094,-2.0086 -7.9008,-10.299 -8.5308,-25.3419 -0.2782,-12.9027 -2.3284,-20.4865 -3.9992,-24.5831 -1.9033,-4.6713 -4.3297,-7.351 -6.6548,-7.3545 -2.3178,0.0034 -4.744,2.6835 -6.6479,7.3545 -1.6702,4.0962 -3.7172,11.6807 -3.9956,24.5483 -0.6294,15.0775 -3.4215,23.3685 -8.5344,25.3767 -4.26,1.6776 -8.482,-1.615 -10.6226,-3.7276 -6.4525,-6.3695 -10.6192,-15.231 -12.7423,-27.0857 -1.7991,-10.0728 -1.8412,-20.5806 -1.8762,-29.8493 -0.0381,-9.7978 -0.073,-18.2589 -2.2726,-22.0563 -4.6984,-8.0926 -10.466,-20.5004 -11.291,-33.657 -0.7657,-12.2727 3.1604,-22.4078 11.3571,-29.3098 14.7722,-12.4362 30.7437,-5.1894 40.2874,-0.8597 2.5723,1.1657 5.2487,2.3669 6.2337,2.3112 0.0733,-0.0071 0.1427,-0.0069 0.2157,0 0.9994,0.059 3.6616,-1.1451 6.2338,-2.3112 9.544,-4.3298 25.5161,-11.5762 40.2875,0.8597 8.1974,6.9019 12.1227,17.0374 11.357,29.3098 -0.8212,13.1566 -6.5922,25.5647 -11.2875,33.657 -2.2031,3.7973 -2.2379,12.2586 -2.2727,22.0563 -0.0376,9.2686 -0.0766,19.7765 -1.8795,29.8493 -2.1231,11.8547 -6.2895,20.7162 -12.7425,27.0857 -1.7297,1.7088 -4.8205,4.1905 -8.196,4.1905z"/></g><rect class="fil1" width="173.397" height="173.397"/></svg>