<svg xmlns="http://www.w3.org/2000/svg" width="790" height="197" viewBox="0 0 790 197" version="1.1"><path d="M 376.500 4.511 C 352.908 8.875, 327.789 18.125, 308.154 29.679 C 298.236 35.515, 291 41.369, 291 43.557 C 291 46.523, 293.416 46.012, 297.343 42.216 C 308.526 31.407, 338.937 17.342, 365 10.924 C 372.897 8.979, 377.199 8.578, 390.500 8.542 C 405.829 8.502, 406.689 8.607, 411 11.042 L 415.500 13.583 415.378 19.381 C 415.279 24.121, 414.422 26.850, 410.682 34.339 C 403.086 49.554, 390.728 65.115, 348.693 112.395 C 307.376 158.867, 305.097 162.063, 310.073 166.566 C 312.129 168.427, 312.209 168.377, 319.823 160.466 C 381.038 96.867, 410.234 68.616, 435 49.019 C 456.894 31.694, 488.614 11, 493.275 11 C 494.735 11, 494.991 11.484, 494.468 13.250 C 492.571 19.646, 476.795 46.518, 454.254 81.749 C 441.956 100.972, 430.989 126.733, 429.419 140.088 C 428.359 149.107, 432.884 162.954, 439.433 170.738 C 442.914 174.875, 448.628 177.553, 450.558 175.952 C 452.966 173.953, 452.204 172.263, 447.794 169.825 C 445.481 168.546, 442.219 165.545, 440.544 163.157 C 437.642 159.015, 437.504 158.363, 437.584 149.157 C 437.656 140.785, 438.113 138.302, 441.015 130.500 C 445.634 118.080, 454.389 101.321, 469.484 76 C 484.329 51.098, 493.840 33.321, 497.452 23.723 C 501.620 12.652, 500.533 4, 494.976 4 C 492.270 4, 479.110 11.125, 467.500 18.876 C 444.879 33.977, 421.659 52.900, 398.789 74.869 C 390.698 82.641, 383.850 89, 383.570 89 C 383.291 89, 388.032 82.226, 394.105 73.946 C 413.233 47.868, 419.871 35.146, 420.688 23 C 421.235 14.869, 419.208 10.447, 413.498 7.317 C 405.915 3.161, 390.230 1.972, 376.500 4.511 M 167.500 16.540 C 135.450 21.705, 93.445 31.741, 67.500 40.433 C 41.471 49.153, 20.248 59.673, 13.394 67.253 C 8.714 72.428, 8.604 78.341, 13.093 83.453 C 14.794 85.390, 17.831 87.464, 19.843 88.061 C 24.140 89.338, 33.571 88.945, 33.340 87.500 C 33.252 86.950, 30.429 85.548, 27.067 84.384 C 20.390 82.073, 17 79.601, 17 77.041 C 17 72.572, 33.510 61.580, 53.340 52.847 C 72.650 44.343, 119.286 30, 127.627 30 C 129.547 30, 130.870 29.599, 130.567 29.109 C 130.264 28.619, 136.200 27.053, 143.758 25.629 C 173.775 19.973, 178.217 19.526, 204 19.563 C 226.099 19.595, 229.284 19.814, 236.500 21.801 C 247.856 24.928, 256.368 29.503, 261.545 35.262 C 267.638 42.038, 268.092 45.340, 264.058 53.534 C 260.500 60.761, 252.458 69.667, 248.860 70.364 C 247.562 70.615, 237.950 72.215, 227.500 73.920 C 196.004 79.057, 166.016 85.919, 144.502 92.913 C 139.553 94.521, 135.327 95.661, 135.111 95.444 C 134.469 94.802, 157.682 65.753, 168.344 53.856 C 170.875 51.032, 172.714 48.347, 172.431 47.889 C 172.148 47.431, 172.621 45.982, 173.481 44.669 C 174.880 42.534, 174.885 42.149, 173.523 41.019 C 172.293 39.998, 171.694 40.009, 170.409 41.076 C 168.178 42.927, 150.115 63.290, 132.334 84 L 117.308 101.500 105.404 106.373 C 58.536 125.559, 29 146.294, 29 160.010 C 29 164.223, 31.315 168.367, 34.472 169.805 C 38.625 171.698, 56.545 171.261, 68.368 168.980 C 106.489 161.623, 168.402 136.785, 208.500 112.762 C 224.472 103.194, 248.896 85.593, 253.299 80.479 C 257.330 75.798, 261.477 74.016, 268.365 74.006 L 272.229 74 266.115 80.537 C 259.711 87.382, 258.341 91.378, 261.499 93.999 C 262.739 95.029, 263.900 94.540, 268.249 91.156 C 271.137 88.909, 276.200 84.988, 279.500 82.444 C 282.800 79.900, 286.724 76.663, 288.220 75.250 C 290.779 72.835, 290.978 72.796, 291.564 74.591 C 293.397 80.204, 294.372 82, 295.586 82 C 297.568 82, 298.826 78.931, 298.290 75.405 C 297.968 73.289, 298.664 70.692, 300.493 67.195 C 301.964 64.382, 302.878 61.612, 302.525 61.040 C 301.118 58.765, 298.016 60.325, 289.638 67.522 C 281.032 74.915, 279 75.766, 279 71.976 C 279 69.148, 275.888 67.989, 270.126 68.671 C 267.307 69.005, 265 69.041, 265 68.752 C 265 68.462, 266.458 65.137, 268.241 61.362 C 274.279 48.575, 272.081 36.985, 262.123 29.097 C 256.444 24.600, 244.618 19.348, 236 17.497 C 225.180 15.172, 179.913 14.540, 167.500 16.540 M 563.449 24.250 C 559.281 28.870, 547.778 44.005, 527.210 71.933 C 523.795 76.571, 521 80.090, 521 79.753 C 521 79.417, 522.792 74.542, 524.983 68.922 C 527.173 63.301, 529.248 57.194, 529.594 55.351 C 530.141 52.436, 529.956 52, 528.176 52 C 526.840 52, 524.001 54.603, 520.006 59.492 C 514.402 66.351, 503.904 76, 502.046 76 C 501.623 76, 500.970 73.009, 500.595 69.354 C 499.802 61.615, 498.656 59, 496.057 59 C 493.435 59, 485.486 68.160, 483.425 73.557 C 481.724 78.012, 481.730 78.084, 484.027 80.529 C 485.304 81.888, 486.759 83, 487.261 83 C 487.763 83, 490.214 81.538, 492.709 79.750 L 497.246 76.500 498.745 78.750 C 499.569 79.988, 500.815 81, 501.514 81 C 502.212 81, 505.195 78.887, 508.142 76.305 C 517.602 68.016, 516.943 68.307, 515.918 72.870 C 515.421 75.079, 514.163 79.050, 513.122 81.694 C 510.016 89.582, 508.937 94.193, 510.313 93.697 C 510.966 93.462, 512.199 93.628, 513.054 94.065 C 515.201 95.164, 516.026 94.431, 521.005 87 C 528.088 76.430, 548.001 49.453, 559.398 34.987 C 569.265 22.464, 571.366 19, 569.093 19 C 568.594 19, 566.054 21.362, 563.449 24.250 M 649.128 47.368 C 646.472 50.108, 645.923 51.397, 646.182 54.283 L 646.500 57.830 651.250 52.342 C 653.862 49.323, 656 46.211, 656 45.426 C 656 42.908, 652.489 43.900, 649.128 47.368 M 658.629 52.078 C 655.006 54.927, 653.669 57.645, 653.038 63.440 C 652.530 68.107, 652.306 68.427, 649 69.221 C 638.589 71.722, 634.726 75.509, 636.995 80.988 C 638.489 84.594, 640.698 86, 644.869 86 C 651.346 86, 657.415 81.942, 658.529 76.866 C 658.878 75.281, 659.951 73.562, 660.914 73.046 C 664.844 70.943, 692.904 68.699, 716.500 68.600 C 741.210 68.497, 765.970 70.424, 766.032 72.456 C 766.049 73.030, 767.203 74.796, 768.596 76.381 C 770.861 78.957, 771.401 79.138, 773.690 78.095 C 775.958 77.062, 776.182 76.505, 775.655 73.214 C 774.814 67.961, 772.229 66.285, 763.744 65.494 C 751.082 64.314, 674.322 65.566, 666.691 67.078 C 660.790 68.247, 659.759 68.231, 658.964 66.963 C 657.731 64.999, 658.598 62.330, 662.089 57.337 C 663.690 55.047, 665 52.459, 665 51.587 C 665 49.360, 661.767 49.609, 658.629 52.078 M 570.229 55.542 C 568.979 56.423, 566.129 59.618, 563.894 62.644 C 559.860 68.105, 554.733 71.298, 547.750 72.698 C 543.634 73.524, 544.149 70.436, 548.359 69.046 C 554.674 66.962, 557.498 56.849, 551.945 56.202 C 546.901 55.615, 540 64.169, 540 71.010 C 540 75.021, 542.599 80, 544.693 80 C 545.595 80, 549.199 78.425, 552.701 76.500 C 556.203 74.575, 559.684 73, 560.436 73 C 561.187 73, 562.732 74.575, 563.867 76.500 C 566.744 81.376, 566.827 81.362, 583.251 73.206 C 583.664 73.001, 583.726 73.551, 583.389 74.429 C 583.052 75.307, 583.340 76.705, 584.029 77.535 C 585.574 79.396, 587.495 78.297, 596.611 70.336 C 599.972 67.401, 603.009 65, 603.361 65 C 603.712 65, 604 66.970, 604 69.378 C 604 75.534, 605.673 76.691, 612.502 75.259 C 615.440 74.643, 620.334 72.919, 623.378 71.428 C 635.806 65.343, 639.360 58.625, 627.500 63.638 C 618.076 67.621, 610.015 70.348, 609.421 69.754 C 609.122 69.456, 609.443 66.476, 610.133 63.133 C 610.824 59.790, 611.097 56.764, 610.741 56.408 C 609.330 54.997, 604.900 57.239, 599.692 61.998 C 593.844 67.343, 592.305 68.168, 593.965 65.066 C 595.330 62.514, 595.291 58, 593.903 58 C 593.300 58, 589.880 60.682, 586.303 63.959 C 579.570 70.129, 572.970 74, 569.184 74 C 565.809 74, 566.551 72.209, 572.068 67.028 C 576.692 62.687, 577.109 61.929, 576.818 58.385 C 576.451 53.904, 574.032 52.861, 570.229 55.542 M 233.500 77.527 C 226.265 78.670, 214.168 80.855, 203.500 82.945 C 201.300 83.376, 195.256 84.493, 190.069 85.427 C 184.882 86.360, 179.257 87.701, 177.569 88.405 C 175.881 89.110, 172.700 90.002, 170.500 90.387 C 164.140 91.502, 140.551 98.133, 140 98.960 C 139.725 99.373, 137.787 100.027, 135.694 100.412 C 131.185 101.241, 128.290 103.970, 114.628 120.271 C 109.221 126.722, 104.238 132, 103.554 132 C 101.848 132, 99 128.700, 99 126.723 C 99 125.833, 101.363 122.321, 104.250 118.921 C 107.138 115.520, 110.328 111.667, 111.340 110.359 C 113.173 107.990, 113.171 107.984, 110.840 108.879 C 96.600 114.347, 68.549 128.491, 58.500 135.270 C 44.942 144.417, 35.686 154.083, 36.716 158.021 C 37.002 159.115, 36.727 160.623, 36.106 161.373 C 32.544 165.664, 53.666 162.939, 77.094 156.085 C 115.331 144.898, 159.295 127.093, 192.710 109.262 C 215.783 96.949, 247.801 75.882, 243 76.172 C 242.175 76.222, 237.900 76.831, 233.500 77.527" stroke="none" fill="#fff" fill-rule="evenodd"/></svg>